<svg id="Capa_1" data-name="Capa 1" xmlns="http://www.w3.org/2000/svg" viewBox="0 0 408.78 242.61"><defs><style>.cls-1{fill:#fffffc;}.cls-2{fill:#00a18e;}.cls-3{fill:#e83670;}.cls-4{fill:#ffe864;}</style></defs><path class="cls-1" d="M269.83,378.07a67,67,0,0,1-27.27-5.58,70.85,70.85,0,0,1-37.26-38.43,76.9,76.9,0,0,1,0-56.16,70.76,70.76,0,0,1,37.08-38.34,66.35,66.35,0,0,1,27.45-5.67,70.47,70.47,0,0,1,23.58,3.69,66.43,66.43,0,0,1,20.34,12,5.68,5.68,0,0,1,2.07,2.79,5.61,5.61,0,0,1,.09,3,4.32,4.32,0,0,1-1.44,2.34,4.43,4.43,0,0,1-2,3.41,6.68,6.68,0,0,1-4.23,1.18,7.52,7.52,0,0,1-4.59-1.89,48.3,48.3,0,0,0-14.76-8.91,54.47,54.47,0,0,0-19.08-3,50.72,50.72,0,0,0-21.24,4.5,55.92,55.92,0,0,0-17.46,12.42,57.69,57.69,0,0,0-11.79,18.36,59,59,0,0,0,11.79,62.82A55.92,55.92,0,0,0,248.59,359a50.72,50.72,0,0,0,21.24,4.5A51.35,51.35,0,0,0,288,360.25a63.7,63.7,0,0,0,16.38-9.18,6.8,6.8,0,0,1,5.22-1.62,7.55,7.55,0,0,1,4.59,2.34,7.25,7.25,0,0,1,1.89,5.22,8.66,8.66,0,0,1-.45,2.78,8.16,8.16,0,0,1-1.71,2.79,57.1,57.1,0,0,1-20.61,11.89A76.9,76.9,0,0,1,269.83,378.07ZM316.09,357,301,353.77V319H274a8,8,0,0,1-5.49-2,6.38,6.38,0,0,1-2.25-5,6.15,6.15,0,0,1,2.25-4.95,8.2,8.2,0,0,1,5.49-1.89h34.38a7.4,7.4,0,0,1,7.74,7.74V357Z" transform="translate(-199.99 -135.45)"/><path class="cls-1" d="M366,376.27a22.69,22.69,0,0,1-13.23-4A26.57,26.57,0,0,1,343.63,361a40,40,0,0,1-3.24-16.56V243.25a7.57,7.57,0,1,1,15.12,0V344.41q0,7.38,3,12.06t7.47,4.68h4.5a6.11,6.11,0,0,1,4.86,2.07,8.07,8.07,0,0,1,1.8,5.49,6.66,6.66,0,0,1-2.61,5.49,10.83,10.83,0,0,1-6.93,2.07Z" transform="translate(-199.99 -135.45)"/><path class="cls-1" d="M438.13,377.35A47.38,47.38,0,0,1,415.54,372a38.57,38.57,0,0,1-15.75-15.57Q394,346.21,394,331.27v-45.9a7.38,7.38,0,0,1,7.56-7.56,7.51,7.51,0,0,1,5.58,2.16,7.33,7.33,0,0,1,2.16,5.4v45.9q0,10.8,4.05,17.81a25.41,25.41,0,0,0,11.07,10.45A35.7,35.7,0,0,0,440.29,363a34.71,34.71,0,0,0,15.21-3.24,26.81,26.81,0,0,0,10.71-9,22.35,22.35,0,0,0,4-13h10.44A39.81,39.81,0,0,1,474.67,358a40.33,40.33,0,0,1-15.12,14.13A43.88,43.88,0,0,1,438.13,377.35Zm39.78-1.08a7.4,7.4,0,0,1-7.74-7.74V285.37a7.25,7.25,0,0,1,2.16-5.49,8.56,8.56,0,0,1,11.16,0,7.25,7.25,0,0,1,2.16,5.49v83.16a7.4,7.4,0,0,1-7.74,7.74Z" transform="translate(-199.99 -135.45)"/><path class="cls-1" d="M558.73,377.17a48.59,48.59,0,0,1-42.93-24.39,50.33,50.33,0,0,1-6.75-25.29V243.43a7.48,7.48,0,0,1,2.16-5.67,7.72,7.72,0,0,1,5.58-2.07,7.45,7.45,0,0,1,5.49,2.07,7.7,7.7,0,0,1,2.07,5.67v51.48A45.59,45.59,0,0,1,540,281.85a45.12,45.12,0,0,1,21.06-4.94,46.18,46.18,0,0,1,24.48,6.57,47,47,0,0,1,17,17.91A52.33,52.33,0,0,1,608.77,327a50.4,50.4,0,0,1-6.57,25.74,48.75,48.75,0,0,1-17.82,17.91A49.91,49.91,0,0,1,558.73,377.17Zm0-13.86a34.25,34.25,0,0,0,18-4.77,34.67,34.67,0,0,0,12.51-13,39.92,39.92,0,0,0,0-37.17,33.82,33.82,0,0,0-12.51-13,36.44,36.44,0,0,0-35.73,0,32.77,32.77,0,0,0-12.51,13,40.63,40.63,0,0,0,0,37.17,33.57,33.57,0,0,0,12.51,13A34,34,0,0,0,558.73,363.31Z" transform="translate(-199.99 -135.45)"/><circle class="cls-2" cx="356.26" cy="77.61" r="20.51"/><ellipse class="cls-3" cx="385.48" cy="42.03" rx="16.99" ry="16.8"/><ellipse class="cls-4" cx="355.81" cy="13.24" rx="13.44" ry="13.24"/></svg>